<?xml version="1.0" standalone="no"?>
<svg xmlns="http://www.w3.org/2000/svg" viewBox="0 0 166.392 29" width="166.392" height="29"><g fill="#6a8bff" color="#6a8bff" transform="translate(0, 0) scale(0.659091)"><svg width="44.0" height="44.0" x="0.0" y="0.0" viewBox="0 0 44 44"><path fill="currentColor" fill-rule="evenodd" d="M21.973 29.756l14.787 8.535-9.168 5.28-5.605-3.224-5.563 3.225-9.182-5.281 14.73-8.535zm0-15.005L44 27.454v6.492l-3.52 2.07-18.506-10.675L3.525 36.016l-3.52-2.042v-6.52L21.973 14.75zM21.97 0l22.026 12.689v10.576L21.984 10.591 0 23.294V12.703L21.97 0z"></path></svg></g><line x1="41" y1="1" x2="41" y2="28" stroke="#5e24c3" stroke-linecap="round"></line><path fill="#5e24c3" fill-rule="nonzero" d="M2.81 16.97L0.12 16.97Q0 16.97 0 16.85L0 16.85L0.05 0.36Q0.05 0.26 0.14 0.26L0.14 0.26L4.75 0.26Q6.96 0.26 8.24 1.61Q9.53 2.95 9.53 5.26L9.53 5.26Q9.53 6.96 8.86 8.21Q8.18 9.46 7.10 10.13Q6.02 10.80 4.75 10.80L4.75 10.80L2.93 10.80L2.93 16.85Q2.93 16.97 2.81 16.97L2.81 16.97ZM2.93 3.14L2.93 7.90L4.75 7.90Q5.52 7.90 6.08 7.16Q6.65 6.43 6.65 5.26L6.65 5.26Q6.65 4.32 6.14 3.72Q5.64 3.12 4.75 3.12L4.75 3.12L2.93 3.14ZM15.86 16.97L12.96 16.97Q12.86 16.97 12.84 16.85L12.84 16.85L10.01 0.36Q9.98 0.26 10.08 0.26L10.08 0.26L12.77 0.26Q12.86 0.26 12.89 0.36L12.89 0.36L14.42 11.21L16.01 0.36Q16.03 0.26 16.15 0.26L16.15 0.26L18.31 0.26Q18.41 0.26 18.43 0.36L18.43 0.36L19.99 11.21L21.55 0.36Q21.58 0.26 21.67 0.26L21.67 0.26L24.34 0.26Q24.46 0.26 24.43 0.36L24.43 0.36L21.58 16.85Q21.55 16.90 21.50 16.93Q21.46 16.97 21.46 16.97L21.46 16.97L18.55 16.97Q18.48 16.97 18.43 16.85L18.43 16.85L17.21 8.23L15.98 16.85Q15.96 16.97 15.86 16.97L15.86 16.97ZM30.26 16.94L25.97 16.97Q25.85 16.97 25.85 16.85L25.85 16.85L25.90 0.36Q25.90 0.26 25.99 0.26L25.99 0.26L30.48 0.24Q31.80 0.22 32.89 0.86Q33.98 1.51 34.63 2.60Q35.28 3.70 35.28 5.02L35.28 5.02L35.28 11.90Q35.28 13.30 34.61 14.44Q33.94 15.58 32.81 16.25Q31.68 16.92 30.26 16.94L30.26 16.94ZM28.80 3.14L28.78 14.02L30.26 14.02Q31.15 14.02 31.76 13.39Q32.38 12.77 32.38 11.90L32.38 11.90L32.38 4.99Q32.38 4.22 31.81 3.66Q31.25 3.10 30.48 3.12L30.48 3.12L28.80 3.14ZM43.54 16.97L40.82 16.97Q40.73 16.97 40.73 16.85L40.73 16.85L40.78 0.36Q40.78 0.26 40.87 0.26L40.87 0.26L43.80 0.26Q43.90 0.26 43.97 0.36L43.97 0.36L46.15 3.53L48.34 0.36Q48.41 0.26 48.50 0.26L48.50 0.26L51.46 0.26Q51.55 0.26 51.55 0.36L51.55 0.36L51.60 16.85Q51.60 16.97 51.50 16.97L51.50 16.97L48.79 16.97Q48.70 16.97 48.70 16.85L48.70 16.85L48.67 4.61L46.15 8.26L43.66 4.61L43.63 16.85Q43.63 16.97 43.54 16.97L43.54 16.97ZM52.80 16.85L52.80 16.85L55.78 0.36Q55.80 0.26 55.90 0.26L55.90 0.26L59.38 0.26Q59.47 0.26 59.50 0.36L59.50 0.36L62.35 16.85Q62.38 16.97 62.26 16.97L62.26 16.97L59.59 16.97Q59.50 16.97 59.47 16.85L59.47 16.85L59.21 15.10L55.94 15.10L55.68 16.85Q55.66 16.97 55.56 16.97L55.56 16.97L52.90 16.97Q52.80 16.97 52.80 16.85ZM57.50 5.78L56.42 12.53L58.73 12.53L57.74 5.78L57.60 4.90L57.50 5.78ZM66.48 16.97L64.08 16.97Q63.89 16.97 63.89 16.80L63.89 16.80L63.86 0.46Q63.86 0.26 64.06 0.26L64.06 0.26L66.22 0.26L70.27 9.72L70.15 0.46Q70.15 0.26 70.37 0.26L70.37 0.26L72.74 0.26Q72.89 0.26 72.89 0.46L72.89 0.46L72.91 16.82Q72.91 16.97 72.79 16.97L72.79 16.97L70.68 16.97L66.53 8.14L66.70 16.78Q66.70 16.97 66.48 16.97L66.48 16.97ZM74.18 16.85L74.18 16.85L77.16 0.36Q77.18 0.26 77.28 0.26L77.28 0.26L80.76 0.26Q80.86 0.26 80.88 0.36L80.88 0.36L83.74 16.85Q83.76 16.97 83.64 16.97L83.64 16.97L80.98 16.97Q80.88 16.97 80.86 16.85L80.86 16.85L80.59 15.10L77.33 15.10L77.06 16.85Q77.04 16.97 76.94 16.97L76.94 16.97L74.28 16.97Q74.18 16.97 74.18 16.85ZM78.89 5.78L77.81 12.53L80.11 12.53L79.13 5.78L78.98 4.90L78.89 5.78ZM89.14 17.21L89.14 17.21Q87.84 17.21 86.78 16.56Q85.73 15.91 85.09 14.82Q84.46 13.73 84.46 12.38L84.46 12.38L84.46 4.78Q84.46 3.48 85.09 2.39Q85.73 1.30 86.80 0.65Q87.86 0 89.14 0L89.14 0Q90.46 0 91.52 0.64Q92.59 1.27 93.22 2.35Q93.84 3.43 93.84 4.78L93.84 4.78L93.84 5.88Q93.84 5.98 93.72 5.98L93.72 5.98L91.03 5.98Q90.94 5.98 90.94 5.88L90.94 5.88L90.94 4.97Q90.94 4.06 90.42 3.46Q89.90 2.86 89.14 2.86L89.14 2.86Q88.44 2.86 87.90 3.43Q87.36 4.01 87.36 4.78L87.36 4.78L87.36 12.38Q87.36 13.18 87.89 13.74Q88.42 14.30 89.14 14.30L89.14 14.30Q89.90 14.30 90.42 13.75Q90.94 13.20 90.94 12.38L90.94 12.38L90.94 11.21L89.26 11.21Q89.14 11.21 89.14 11.09L89.14 11.09L89.14 8.40Q89.14 8.28 89.26 8.28L89.26 8.28L93.74 8.28Q93.84 8.28 93.84 8.40L93.84 8.40L93.84 12.38Q93.84 13.73 93.20 14.82Q92.57 15.91 91.51 16.56Q90.46 17.21 89.14 17.21ZM103.39 16.97L95.64 16.97Q95.54 16.97 95.54 16.85L95.54 16.85L95.57 0.36Q95.57 0.26 95.66 0.26L95.66 0.26L103.37 0.26Q103.46 0.26 103.46 0.38L103.46 0.38L103.46 3.07Q103.46 3.17 103.37 3.17L103.37 3.17L98.45 3.17L98.45 6.91L103.37 6.91Q103.46 6.91 103.46 7.01L103.46 7.01L103.49 9.72Q103.49 9.82 103.39 9.82L103.39 9.82L98.45 9.82L98.45 14.02L103.39 14.02Q103.49 14.02 103.49 14.14L103.49 14.14L103.49 16.87Q103.49 16.97 103.39 16.97L103.39 16.97ZM108.43 16.97L105.72 16.97Q105.62 16.97 105.62 16.85L105.62 16.85L105.67 0.36Q105.67 0.26 105.77 0.26L105.77 0.26L110.62 0.26Q111.91 0.26 113.00 0.90Q114.10 1.54 114.74 2.60Q115.39 3.67 115.39 5.02L115.39 5.02Q115.39 5.90 115.13 6.61Q114.86 7.32 114.50 7.81Q114.14 8.30 113.86 8.54L113.86 8.54Q115.15 9.98 115.15 11.93L115.15 11.93L115.18 16.85Q115.18 16.97 115.06 16.97L115.06 16.97L112.34 16.97Q112.25 16.97 112.25 16.90L112.25 16.90L112.25 11.93Q112.25 11.06 111.64 10.43Q111.02 9.79 110.14 9.79L110.14 9.79L108.55 9.79L108.53 16.85Q108.53 16.97 108.43 16.97L108.43 16.97ZM108.55 3.14L108.55 6.91L110.62 6.91Q111.36 6.91 111.94 6.36Q112.51 5.81 112.51 5.02L112.51 5.02Q112.51 4.25 111.95 3.70Q111.38 3.14 110.62 3.14L110.62 3.14L108.55 3.14Z" transform="translate(51, 6.016)"></path></svg>